# xmcd
#
# Track frame offsets: 
#        150
#        12717
#        32665
#        47285
#        68587
#        91152
#        103405
#        118885
#        131680
#        148650
#        160195
#        171060
#
# Disc length: 2447 seconds
#
# Revision: 2
# Processed by: cddbd v1.5.2PL0 Copyright (c) Steve Scherf et al.
# Submitted via: ExactAudioCopyFreeDBPlugin 1.0
#
DISCID=a1098d0c
DTITLE=Various Artist - Northgate Noise
DYEAR=2000
DGENRE=Country
TTITLE0=Gary Stewart - She's Actin' Single (I'm Drinkin' Doubles)
TTITLE1=Jerry Jeff Walker - Sangria Wine
TTITLE2=Waylon Jennings - Luckenbach, Texas (Back to the Basics of Lov
TTITLE2=e)
TTITLE3=Lynyrd Skynyrd - Sweet Home Alabama
TTITLE4=Robert Earl Keen, Jr. - Gringo Honeymoon
TTITLE5=Freddy Fender - Wasted Days and Wasted Nights
TTITLE6=The Bellamy Brothers - Redneck Girl
TTITLE7=Conway Twitty - Tight Fittin' Jeans
TTITLE8=Pat Green - Southbound 35
TTITLE9=Steve Earle - Guitar Town
TTITLE10=Roger Miller - King of the Road
TTITLE11=George Jones - White Lightnin'
EXTD=ID3G: 2
EXTT0=
EXTT1=
EXTT2=
EXTT3=
EXTT4=
EXTT5=
EXTT6=
EXTT7=
EXTT8=
EXTT9=
EXTT10=
EXTT11=
PLAYORDER=
